<svg xmlns="http://www.w3.org/2000/svg" xmlns:xlink="http://www.w3.org/1999/xlink" viewBox="0 0 2162 1484" width="2162" height="1484">
  <defs>
    <marker id="arrow-emerald" markerWidth="22" markerHeight="22" refX="18" refY="11" orient="auto" markerUnits="strokeWidth">
      <path d="M2,2 L20,11 L2,20 Z" fill="#34d399"/>
    </marker>
    <filter id="soft-shadow" x="-20%" y="-20%" width="140%" height="140%">
      <feDropShadow dx="0" dy="8" stdDeviation="8" flood-color="#020617" flood-opacity="0.42"/>
    </filter>
  </defs>
  <image href="/breadboard-default.jpg" xlink:href="/breadboard-default.jpg" width="2162" height="1484" preserveAspectRatio="xMidYMid slice"/>
  <rect x="0" y="0" width="2162" height="1484" fill="#020617" opacity="0.08"/>

  <g filter="url(#soft-shadow)">
    <rect x="1104" y="86" width="862" height="132" rx="16" fill="#052e2b" opacity="0.96"/>
    <rect x="1104" y="86" width="862" height="132" rx="16" fill="none" stroke="#34d399" stroke-width="4" opacity="0.8"/>
    <text x="1144" y="138" fill="#a7f3d0" font-family="Inter, Arial, sans-serif" font-size="32" font-weight="700">Step 1: place R1</text>
    <text x="1144" y="186" fill="#f8fafc" font-family="Inter, Arial, sans-serif" font-size="27">Put the 1 kOhm resistor between A10 and A20.</text>
  </g>

  <g fill="none" stroke-linecap="round" stroke-linejoin="round" filter="url(#soft-shadow)">
    <path d="M1425 485 C1360 600 1360 815 1425 932" stroke="#34d399" stroke-width="18" marker-end="url(#arrow-emerald)"/>
    <path d="M1425 485 L1425 932" stroke="#f8fafc" stroke-width="6" stroke-dasharray="22 18" opacity="0.92"/>
  </g>
  <g font-family="Inter, Arial, sans-serif" filter="url(#soft-shadow)">
    <circle cx="1425" cy="485" r="34" fill="#34d399" stroke="#052e2b" stroke-width="8"/>
    <circle cx="1425" cy="932" r="34" fill="#34d399" stroke="#052e2b" stroke-width="8"/>
    <rect x="1486" y="442" width="176" height="54" rx="12" fill="#052e2b" opacity="0.96"/>
    <text x="1510" y="479" fill="#ecfeff" font-size="28" font-weight="700">A10</text>
    <rect x="1486" y="902" width="176" height="54" rx="12" fill="#052e2b" opacity="0.96"/>
    <text x="1510" y="939" fill="#ecfeff" font-size="28" font-weight="700">A20</text>
    <rect x="1280" y="684" width="182" height="60" rx="14" fill="#064e3b" opacity="0.96"/>
    <text x="1315" y="725" fill="#a7f3d0" font-size="31" font-weight="800">R1</text>
  </g>
</svg>
