<svg xmlns="http://www.w3.org/2000/svg" xmlns:xlink="http://www.w3.org/1999/xlink" viewBox="0 0 2162 1484" width="2162" height="1484">
  <defs>
    <marker id="arrow-cyan" markerWidth="22" markerHeight="22" refX="18" refY="11" orient="auto" markerUnits="strokeWidth">
      <path d="M2,2 L20,11 L2,20 Z" fill="#38bdf8"/>
    </marker>
    <filter id="soft-shadow" x="-20%" y="-20%" width="140%" height="140%">
      <feDropShadow dx="0" dy="8" stdDeviation="8" flood-color="#020617" flood-opacity="0.42"/>
    </filter>
  </defs>
  <image href="/breadboard-default.jpg" xlink:href="/breadboard-default.jpg" width="2162" height="1484" preserveAspectRatio="xMidYMid slice"/>
  <rect x="0" y="0" width="2162" height="1484" fill="#020617" opacity="0.08"/>

  <g filter="url(#soft-shadow)">
    <rect x="1104" y="86" width="862" height="132" rx="16" fill="#082f49" opacity="0.96"/>
    <rect x="1104" y="86" width="862" height="132" rx="16" fill="none" stroke="#38bdf8" stroke-width="4" opacity="0.8"/>
    <text x="1144" y="138" fill="#bae6fd" font-family="Inter, Arial, sans-serif" font-size="32" font-weight="700">Step 2: place R2</text>
    <text x="1144" y="186" fill="#f8fafc" font-family="Inter, Arial, sans-serif" font-size="27">Put the 2.2 kOhm resistor between B20 and B30.</text>
  </g>

  <g fill="none" stroke-linecap="round" stroke-linejoin="round" filter="url(#soft-shadow)" opacity="0.55">
    <path d="M1425 485 C1360 600 1360 815 1425 932" stroke="#22c55e" stroke-width="14"/>
    <path d="M1425 485 L1425 932" stroke="#f8fafc" stroke-width="5" stroke-dasharray="18 16"/>
  </g>
  <g filter="url(#soft-shadow)" opacity="0.86">
    <circle cx="1425" cy="485" r="26" fill="#22c55e" stroke="#052e2b" stroke-width="7"/>
    <circle cx="1425" cy="932" r="26" fill="#22c55e" stroke="#052e2b" stroke-width="7"/>
    <rect x="1268" y="704" width="202" height="50" rx="12" fill="#052e2b" opacity="0.94"/>
    <text x="1300" y="738" fill="#bbf7d0" font-family="Inter, Arial, sans-serif" font-size="26" font-weight="800">R1 done</text>
  </g>

  <g fill="none" stroke-linecap="round" stroke-linejoin="round" filter="url(#soft-shadow)">
    <path d="M1470 932 C1548 1030 1548 1280 1470 1379" stroke="#38bdf8" stroke-width="18" marker-end="url(#arrow-cyan)"/>
    <path d="M1470 932 L1470 1379" stroke="#f8fafc" stroke-width="6" stroke-dasharray="22 18" opacity="0.92"/>
  </g>
  <g font-family="Inter, Arial, sans-serif" filter="url(#soft-shadow)">
    <circle cx="1470" cy="932" r="34" fill="#38bdf8" stroke="#082f49" stroke-width="8"/>
    <circle cx="1470" cy="1379" r="34" fill="#38bdf8" stroke="#082f49" stroke-width="8"/>
    <rect x="1528" y="902" width="176" height="54" rx="12" fill="#082f49" opacity="0.96"/>
    <text x="1552" y="939" fill="#ecfeff" font-size="28" font-weight="700">B20</text>
    <rect x="1528" y="1318" width="176" height="54" rx="12" fill="#082f49" opacity="0.96"/>
    <text x="1552" y="1355" fill="#ecfeff" font-size="28" font-weight="700">B30</text>
    <rect x="1584" y="1122" width="182" height="60" rx="14" fill="#075985" opacity="0.96"/>
    <text x="1618" y="1163" fill="#bae6fd" font-size="31" font-weight="800">R2</text>
  </g>
</svg>
