<svg xmlns="http://www.w3.org/2000/svg" xmlns:xlink="http://www.w3.org/1999/xlink" viewBox="0 0 2162 1484" width="2162" height="1484">
  <defs>
    <marker id="arrow-green" markerWidth="20" markerHeight="20" refX="17" refY="10" orient="auto" markerUnits="strokeWidth">
      <path d="M2,2 L18,10 L2,18 Z" fill="#22c55e"/>
    </marker>
    <marker id="arrow-sky" markerWidth="20" markerHeight="20" refX="17" refY="10" orient="auto" markerUnits="strokeWidth">
      <path d="M2,2 L18,10 L2,18 Z" fill="#38bdf8"/>
    </marker>
    <marker id="arrow-amber" markerWidth="20" markerHeight="20" refX="17" refY="10" orient="auto" markerUnits="strokeWidth">
      <path d="M2,2 L18,10 L2,18 Z" fill="#facc15"/>
    </marker>
    <filter id="soft-shadow" x="-20%" y="-20%" width="140%" height="140%">
      <feDropShadow dx="0" dy="8" stdDeviation="8" flood-color="#020617" flood-opacity="0.42"/>
    </filter>
  </defs>
  <image href="/breadboard-default.jpg" xlink:href="/breadboard-default.jpg" width="2162" height="1484" preserveAspectRatio="xMidYMid slice"/>
  <rect x="0" y="0" width="2162" height="1484" fill="#020617" opacity="0.08"/>

  <g filter="url(#soft-shadow)">
    <rect x="1070" y="62" width="946" height="142" rx="16" fill="#111827" opacity="0.96"/>
    <rect x="1070" y="62" width="946" height="142" rx="16" fill="none" stroke="#facc15" stroke-width="4" opacity="0.72"/>
    <text x="1110" y="116" fill="#fde68a" font-family="Inter, Arial, sans-serif" font-size="32" font-weight="700">Step 3: wire Arduino UNO leads</text>
    <text x="1110" y="166" fill="#f8fafc" font-family="Inter, Arial, sans-serif" font-size="27">D9 -> B10, A0 -> C20, and GND -> C30.</text>
  </g>

  <g fill="none" stroke-linecap="round" stroke-linejoin="round" filter="url(#soft-shadow)" opacity="0.45">
    <path d="M1425 485 C1360 600 1360 815 1425 932" stroke="#22c55e" stroke-width="14"/>
    <path d="M1470 932 C1548 1030 1548 1280 1470 1379" stroke="#38bdf8" stroke-width="14"/>
  </g>
  <g filter="url(#soft-shadow)" opacity="0.8">
    <circle cx="1425" cy="485" r="24" fill="#22c55e" stroke="#052e2b" stroke-width="6"/>
    <circle cx="1425" cy="932" r="24" fill="#22c55e" stroke="#052e2b" stroke-width="6"/>
    <circle cx="1470" cy="932" r="24" fill="#38bdf8" stroke="#082f49" stroke-width="6"/>
    <circle cx="1470" cy="1379" r="24" fill="#38bdf8" stroke="#082f49" stroke-width="6"/>
  </g>

  <g fill="none" stroke-linecap="round" stroke-linejoin="round" filter="url(#soft-shadow)">
    <path d="M913 868 C1112 795 1240 575 1470 485" stroke="#22c55e" stroke-width="16" marker-end="url(#arrow-green)"/>
    <path d="M63 1074 C430 1020 1040 1038 1515 932" stroke="#38bdf8" stroke-width="16" marker-end="url(#arrow-sky)"/>
    <path d="M63 895 C440 1210 1000 1430 1515 1379" stroke="#facc15" stroke-width="16" marker-end="url(#arrow-amber)"/>
  </g>

  <g font-family="Inter, Arial, sans-serif" filter="url(#soft-shadow)">
    <circle cx="913" cy="868" r="30" fill="#22c55e" stroke="#052e2b" stroke-width="7"/>
    <circle cx="1470" cy="485" r="34" fill="#22c55e" stroke="#052e2b" stroke-width="8"/>
    <rect x="970" y="828" width="132" height="52" rx="12" fill="#052e2b" opacity="0.96"/>
    <text x="997" y="864" fill="#dcfce7" font-size="27" font-weight="800">D9</text>
    <rect x="1518" y="438" width="166" height="54" rx="12" fill="#052e2b" opacity="0.96"/>
    <text x="1543" y="475" fill="#dcfce7" font-size="28" font-weight="700">B10</text>

    <circle cx="63" cy="1074" r="30" fill="#38bdf8" stroke="#082f49" stroke-width="7"/>
    <circle cx="1515" cy="932" r="34" fill="#38bdf8" stroke="#082f49" stroke-width="8"/>
    <rect x="102" y="1034" width="132" height="52" rx="12" fill="#082f49" opacity="0.96"/>
    <text x="130" y="1070" fill="#e0f2fe" font-size="27" font-weight="800">A0</text>
    <rect x="1568" y="905" width="166" height="54" rx="12" fill="#082f49" opacity="0.96"/>
    <text x="1592" y="942" fill="#e0f2fe" font-size="28" font-weight="700">C20</text>

    <circle cx="63" cy="895" r="30" fill="#facc15" stroke="#422006" stroke-width="7"/>
    <circle cx="1515" cy="1379" r="34" fill="#facc15" stroke="#422006" stroke-width="8"/>
    <rect x="102" y="855" width="152" height="52" rx="12" fill="#422006" opacity="0.96"/>
    <text x="128" y="891" fill="#fef3c7" font-size="27" font-weight="800">GND</text>
    <rect x="1568" y="1319" width="166" height="54" rx="12" fill="#422006" opacity="0.96"/>
    <text x="1592" y="1356" fill="#fef3c7" font-size="28" font-weight="700">C30</text>
  </g>
</svg>
